<svg id="Capa_1" enable-background="new 0 0 512 512" height="512" viewBox="0 0 512 512" width="512" xmlns="http://www.w3.org/2000/svg"><g><g><path d="m445.656 179.565h-6.53c-.966-6.235-3.118-12.122-6.238-17.462 7.985-10.688 12.335-23.488 12.335-36.527 0-35.598-31.57-64.559-70.374-64.559-5.501 0-10.888.568-16.126 1.697-1.064-34.747-32.212-62.714-70.347-62.714-33.152 0-61.304 21.226-68.551 49.961-1.882-.14-3.767-.21-5.647-.21-36.294 0-66.259 25.341-69.981 57.749h-10.7c-24.622 0-44.653 18.535-44.653 41.318 0 6.45 1.606 12.56 4.467 18.005-14.882 5.595-26.046 17.932-29.023 32.884h-3.491c-17.464 0-31.672 13.272-31.672 29.586s14.208 29.587 31.672 29.587h119.846c-3.878 5.568-6.091 12.309-6.091 19.476v53.824h-96.398c-5.523 0-10 4.478-10 10v66.961c0 56.716 46.143 102.859 102.86 102.859h169.973c56.717 0 102.859-46.143 102.859-102.859v-66.961c0-5.522-4.477-10-10-10h-143.083l-25.684-31.867 69.012-26.468c11.636-3.845 20.08-13.459 22.587-25.079h88.979c20.522 0 37.219-15.521 37.219-34.601-.001-19.078-16.697-34.6-37.22-34.6zm-312.159-52.065h20.42c2.764 0 5.405-1.145 7.296-3.161 1.89-2.017 2.862-4.726 2.683-7.484-.059-.916-.088-1.747-.088-2.543 0-24.57 22.596-44.561 50.37-44.561 3.958 0 7.95.423 11.864 1.258 2.84.607 5.799-.052 8.114-1.802 2.315-1.749 3.756-4.418 3.95-7.313 1.566-23.492 23.648-41.894 50.27-41.894 27.777 0 50.375 19.987 50.375 44.555 0 3.346-.438 6.723-1.303 10.036-.979 3.752.299 7.731 3.279 10.212s7.127 3.014 10.637 1.37c7.305-3.421 15.206-5.155 23.484-5.155 27.776 0 50.374 19.989 50.374 44.559 0 7.467-2.049 14.633-5.979 21.066-9.995-7.758-22.896-12.438-36.962-12.438-.94 0-1.882.021-2.824.064-6.592-22.626-29.087-39.143-55.457-39.143-30.195 0-55.021 21.561-57.259 48.833-3.484-.603-7.043-.905-10.664-.905-21.504 0-40.284 10.936-50.123 27.083h-72.458c-13.594 0-24.653-9.563-24.653-21.318s11.06-21.319 24.654-21.319zm-84.372 101.793c0-5.286 5.236-9.586 11.672-9.586h12.771c2.764 0 5.404-1.144 7.294-3.159 1.89-2.016 2.862-4.725 2.685-7.482-.029-.448-.047-.9-.047-1.354 0-12.783 11.5-23.275 25.981-24.073 6.939 4.112 15.182 6.498 24.015 6.498h65.498c-.225 1.896-.34 3.822-.34 5.772 0 16.773 8.662 31.914 22.168 41.645-2.206.661-4.523 1.081-6.911 1.241-.266.018-.528.046-.788.084h-152.326c-6.436.001-11.672-4.3-11.672-9.586zm374.721 152.852h-122.64c-5.523 0-10 4.478-10 10s4.477 10 10 10h122.64v6.996c0 45.688-37.17 82.859-82.859 82.859h-169.973c-45.689 0-82.859-37.171-82.859-82.859v-6.996h122.639c5.523 0 10-4.478 10-10s-4.477-10-10-10h-122.64v-29.965h335.691v29.965zm-96.152-127.251c-.177.057-.353.119-.527.186l-82.075 31.478c-2.985 1.145-5.243 3.648-6.075 6.736-.832 3.087-.137 6.387 1.87 8.876l24.188 30.011h-70.523v-53.824c0-6.127 3.92-11.502 9.754-13.374l50.542-16.216h80.598c-1.708 2.843-4.417 5.057-7.752 6.127zm117.962-26.128h-191.506c-.318-.053-.642-.09-.97-.112-19.36-1.299-34.526-15.682-34.526-32.744 0-18.116 16.788-32.855 37.423-32.855 6.185 0 12.085 1.294 17.536 3.848 3.511 1.645 7.657 1.11 10.637-1.37 2.98-2.479 4.259-6.459 3.28-10.211-.633-2.428-.955-4.898-.955-7.343 0-18.114 16.788-32.852 37.424-32.852 19.786 0 36.19 13.574 37.346 30.903.193 2.896 1.634 5.564 3.949 7.313s5.276 2.407 8.113 1.802c2.928-.624 5.913-.94 8.873-.94 20.633 0 37.419 14.739 37.419 32.856 0 .579-.021 1.188-.064 1.859-.179 2.759.793 5.468 2.683 7.484 1.891 2.017 4.532 3.161 7.296 3.161h16.04c9.495 0 17.219 6.55 17.219 14.6.002 8.051-7.722 14.601-17.217 14.601z"/><g><path d="m255.82 402.14c-4.175 0-8.01-2.695-9.415-6.63-1.363-3.816-.232-8.214 2.822-10.886 3.188-2.79 7.921-3.249 11.591-1.137 3.56 2.05 5.549 6.232 4.863 10.288-.807 4.764-5.017 8.365-9.861 8.365z"/></g></g></g></svg>